{"glyphs":{":":{"x_min":0,"x_max":276,"ha":276,"o":"m 50 67 q 50 82 55 96 q 61 109 71 119 q 81 129 95 135 q 108 141 124 141 q 140 141 153 135 q 167 129 177 119 q 187 109 193 96 q 199 82 199 67 q 199 51 193 38 q 187 24 177 14 q 167 4 153 -1 q 140 -7 124 -7 q 108 -7 95 -1 q 81 4 71 14 q 61 24 55 38 q 50 51 50 67 z m 85 398 q 85 413 91 427 q 96 440 106 450 q 116 460 130 466 q 144 472 159 472 q 175 472 188 466 q 202 460 212 450 q 222 440 228 427 q 234 413 234 398 q 234 382 228 369 q 222 355 212 345 q 202 335 188 330 q 175 324 159 324 q 144 324 130 330 q 116 335 106 345 q 96 355 91 369 q 85 382 85 398 z"},"$":{"x_min":0,"x_max":507,"ha":507,"o":"m 189 -6 q 142 0 105 19 q 67 38 42 67 l 72 107 q 80 117 89 122 q 98 127 110 127 q 118 127 126 122 q 134 117 145 110 q 156 103 171 96 q 187 89 208 85 l 240 236 q 214 245 189 255 q 164 266 144 280 q 124 294 112 313 q 99 333 99 359 q 99 392 112 424 q 125 455 151 480 q 177 505 215 522 q 253 538 305 542 l 326 642 l 393 642 l 371 539 q 410 533 441 518 q 472 502 492 480 l 460 435 q 454 427 447 422 q 441 417 432 417 q 424 417 417 421 q 410 425 401 431 q 393 437 381 442 q 369 448 353 452 l 322 306 q 348 296 373 286 q 398 276 419 261 q 439 247 452 228 q 464 209 464 182 q 464 145 449 112 q 434 79 406 53 q 378 28 340 11 q 302 -5 256 -8 l 236 -107 l 168 -107 z m 357 153 q 357 174 342 188 q 327 201 303 212 l 276 83 q 299 86 314 93 q 330 99 340 108 q 349 118 353 129 q 357 141 357 153 z m 212 384 q 212 366 226 353 q 239 340 260 330 l 286 453 q 246 447 229 428 q 212 410 212 384 z"},"?":{"x_min":0,"x_max":463,"ha":463,"o":"m 109 620 q 127 634 146 647 q 166 660 188 669 q 210 679 235 684 q 260 689 289 689 q 327 689 355 679 q 384 668 404 649 q 423 631 433 606 q 443 582 443 553 q 443 513 432 486 q 422 458 406 438 q 390 418 370 403 q 351 389 332 375 q 314 361 300 345 q 285 330 279 309 l 259 240 l 177 240 l 178 317 q 179 341 190 360 q 202 378 219 394 q 236 410 256 424 q 276 438 293 454 q 310 470 321 488 q 333 507 333 531 q 333 560 316 577 q 300 593 266 593 q 242 593 225 587 q 208 582 196 574 q 183 567 174 562 q 165 556 158 556 q 142 556 135 571 z m 133 67 q 133 82 138 96 q 144 109 154 119 q 164 129 177 135 q 191 141 207 141 q 222 141 236 135 q 250 129 260 119 q 270 109 275 96 q 281 82 281 67 q 281 51 275 38 q 270 24 260 14 q 250 4 236 -1 q 222 -7 207 -7 q 191 -7 177 -1 q 164 4 154 14 q 144 24 138 38 q 133 51 133 67 z"},"<":{"x_min":0,"x_max":498,"ha":498,"o":"m 70 330 l 71 342 l 471 539 l 460 451 q 459 441 453 433 q 447 424 435 418 l 263 335 q 240 324 211 317 q 238 311 259 300 l 411 217 q 421 211 425 203 q 429 195 428 185 l 417 96 l 65 293 z"},"'":{"x_min":0,"x_max":233,"ha":233,"o":"m 224 682 l 207 546 l 188 473 q 182 451 171 440 q 161 429 140 429 q 123 429 115 440 q 107 451 106 473 l 103 546 l 120 682 z"},"=":{"x_min":0,"x_max":498,"ha":498,"o":"m 44 278 l 463 278 l 452 189 l 33 189 z m 65 444 l 483 444 l 473 355 l 54 355 z"},"a":{"x_min":0,"x_max":528,"ha":528,"o":"m 438 0 l 372 0 q 348 0 339 12 q 330 24 331 41 l 335 103 q 301 52 257 22 q 213 -7 161 -7 q 131 -7 105 3 q 79 14 59 36 q 40 58 29 91 q 18 124 18 168 q 18 212 30 253 q 41 293 62 330 q 84 366 114 396 q 145 425 182 447 q 220 468 263 480 q 307 492 355 492 q 391 492 426 487 q 461 482 495 470 z m 208 94 q 230 94 251 108 q 272 122 290 147 q 309 171 324 204 q 339 237 350 275 l 366 404 q 359 404 352 405 q 345 405 339 405 q 297 405 261 387 q 225 370 198 341 q 172 312 157 273 q 142 234 142 190 q 142 139 159 116 q 177 94 208 94 z"},"L":{"x_min":0,"x_max":423,"ha":423,"o":"m 164 102 l 393 102 l 381 0 l 28 0 l 107 648 l 231 648 z"},"3":{"x_min":0,"x_max":507,"ha":507,"o":"m 340 655 q 381 655 413 644 q 445 632 467 612 q 489 592 501 564 q 513 537 513 505 q 513 470 505 443 q 497 417 482 397 q 466 377 444 364 q 422 350 394 342 q 489 308 489 213 q 489 160 469 119 q 448 78 414 50 q 380 22 336 8 q 292 -7 245 -7 q 198 -7 164 4 q 130 15 106 37 q 83 59 68 91 q 53 123 44 165 l 97 185 q 118 193 134 190 q 151 186 157 171 q 163 155 171 140 q 179 125 190 114 q 201 102 216 95 q 232 88 254 88 q 283 88 306 98 q 328 109 344 126 q 359 144 367 166 q 375 188 375 213 q 375 230 369 244 q 364 259 349 269 q 334 280 309 286 q 283 292 244 292 l 253 373 q 293 373 321 380 q 349 388 366 402 q 384 416 392 436 q 399 457 399 484 q 399 521 379 541 q 359 560 322 560 q 303 560 287 554 q 271 549 258 539 q 245 529 234 516 q 224 503 217 488 q 208 466 195 459 q 181 453 158 457 l 100 467 q 112 514 135 549 q 159 584 190 608 q 222 631 260 643 q 298 655 340 655 z"},";":{"x_min":0,"x_max":276,"ha":276,"o":"m 52 75 q 52 88 57 101 q 62 113 71 122 q 81 130 94 135 q 107 141 123 141 q 142 141 156 134 q 169 127 178 116 q 188 104 192 90 q 197 75 197 58 q 197 35 190 10 q 183 -16 169 -41 q 156 -67 136 -91 q 116 -115 89 -135 l 67 -116 q 59 -107 59 -98 q 59 -91 67 -82 q 75 -72 85 -60 q 95 -48 105 -32 q 115 -17 120 2 q 104 2 92 8 q 80 14 71 23 q 62 33 57 46 q 52 59 52 75 z m 89 398 q 89 413 95 427 q 101 440 111 450 q 121 460 134 466 q 148 472 164 472 q 179 472 193 466 q 207 460 217 450 q 227 440 232 427 q 238 413 238 398 q 238 382 232 369 q 227 355 217 345 q 207 335 193 330 q 179 324 164 324 q 148 324 134 330 q 121 335 111 345 q 101 355 95 369 q 89 382 89 398 z"},"J":{"x_min":0,"x_max":331,"ha":331,"o":"m 287 227 q 280 173 263 130 q 246 86 219 56 q 192 25 154 9 q 117 -7 69 -7 q 27 -7 -16 4 l -6 77 q -5 87 1 94 q 6 100 19 100 q 29 100 41 97 q 54 94 70 94 q 106 94 130 125 q 154 155 163 225 l 213 648 l 338 648 z"},"V":{"x_min":0,"x_max":591,"ha":591,"o":"m 54 648 l 153 648 q 169 648 178 641 q 188 633 190 621 l 272 230 q 276 210 281 187 q 285 164 288 138 q 296 164 305 187 q 314 210 323 231 l 499 621 q 503 631 516 640 q 528 648 543 648 l 643 648 l 325 0 l 213 0 z"},"\"":{"x_min":0,"x_max":438,"ha":438,"o":"m 224 682 l 207 546 l 188 473 q 182 451 171 440 q 161 429 140 429 q 123 429 115 440 q 107 451 106 473 l 103 546 l 120 682 z m 401 682 l 384 546 l 365 473 q 359 451 348 440 q 338 429 317 429 q 300 429 292 440 q 284 451 283 473 l 280 546 l 297 682 z"},"7":{"x_min":0,"x_max":507,"ha":507,"o":"m 545 648 l 540 600 q 537 578 530 564 q 523 551 518 541 l 220 39 q 210 22 195 11 q 180 0 156 0 l 73 0 l 376 492 q 385 508 396 521 q 406 535 418 546 l 120 546 q 110 546 103 554 q 96 562 97 572 l 106 648 z"},"S":{"x_min":0,"x_max":465,"ha":465,"o":"m 438 529 q 431 520 425 515 q 418 511 409 511 q 400 511 390 518 q 380 525 366 534 q 352 542 333 549 q 314 556 288 556 q 263 556 243 549 q 224 542 210 531 q 197 519 190 502 q 183 486 183 467 q 183 447 194 433 q 205 418 223 407 q 242 396 265 388 q 288 379 312 369 q 336 359 359 347 q 382 335 401 319 q 419 302 430 279 q 441 256 441 225 q 441 177 424 135 q 407 93 375 62 q 342 30 297 12 q 251 -7 194 -7 q 164 -7 135 -1 q 106 5 80 16 q 54 27 32 43 q 10 59 -6 78 l 38 135 q 43 142 51 146 q 60 151 68 151 q 79 151 91 142 q 102 132 118 121 q 133 110 155 101 q 177 91 208 91 q 262 91 292 119 q 322 146 322 195 q 322 217 311 232 q 300 247 282 257 q 264 268 241 276 q 218 284 194 293 q 170 302 147 313 q 124 324 106 341 q 88 358 77 382 q 66 406 66 441 q 66 483 82 521 q 98 560 128 590 q 158 620 202 637 q 245 655 299 655 q 327 655 353 649 q 379 644 401 634 q 424 624 442 610 q 461 597 475 581 z"},"}":{"x_min":0,"x_max":344,"ha":344,"o":"m 235 138 q 235 132 235 123 q 235 113 236 103 q 236 93 237 84 q 237 74 237 67 q 237 16 225 -24 q 214 -63 190 -91 q 167 -118 131 -132 q 95 -146 47 -146 l 24 -146 l 31 -93 q 31 -87 35 -82 q 38 -78 42 -75 q 46 -72 51 -70 q 56 -69 59 -69 l 61 -69 q 91 -69 108 -47 q 125 -26 129 13 q 132 37 133 60 q 133 82 134 103 q 134 125 134 145 q 134 165 136 185 q 140 224 162 252 q 183 281 218 292 q 189 301 175 325 q 160 349 160 379 q 160 406 166 432 q 172 458 180 484 q 188 510 194 537 q 200 563 200 591 q 200 619 187 636 q 175 653 150 653 l 147 653 q 144 653 140 654 q 136 655 132 658 q 129 661 127 666 q 125 670 125 676 l 132 729 l 155 729 q 193 729 221 719 q 249 709 267 691 q 286 673 294 648 q 303 623 303 593 q 303 562 297 535 q 290 507 282 481 q 274 455 268 429 q 261 403 261 377 q 261 354 271 340 q 281 326 304 326 l 296 257 q 261 257 248 228 q 235 199 235 138 z"},"Z":{"x_min":0,"x_max":478,"ha":478,"o":"m 517 648 l 511 610 q 510 602 507 595 q 503 588 498 581 l 166 98 l 441 98 l 429 0 l -7 0 l -2 38 q -1 46 2 53 q 6 60 11 66 l 344 550 l 80 550 l 93 648 z"},"x":{"x_min":0,"x_max":459,"ha":459,"o":"m 156 262 l 54 485 l 167 485 q 179 485 185 481 q 190 478 194 470 l 250 333 q 252 338 255 344 q 258 349 262 354 l 332 468 q 338 476 344 480 q 351 485 359 485 l 472 485 l 311 263 l 424 0 l 311 0 q 298 0 292 7 q 285 14 281 22 l 218 183 q 216 178 213 174 q 211 170 208 167 l 118 22 q 111 14 104 7 q 96 0 84 0 l -25 0 z"},")":{"x_min":0,"x_max":312,"ha":312,"o":"m 157 388 q 157 420 154 456 q 151 492 146 528 q 141 563 133 598 q 125 632 115 662 q 108 681 114 692 q 121 703 132 709 l 188 741 q 208 701 221 657 q 235 614 244 570 q 252 525 257 481 q 261 438 261 397 q 261 326 252 259 q 243 191 222 125 q 201 58 166 -10 q 131 -78 79 -150 l 30 -118 q 26 -115 22 -111 q 19 -107 17 -101 q 16 -96 18 -88 q 20 -81 25 -71 q 56 -20 80 34 q 104 88 122 145 q 139 202 148 262 q 157 323 157 388 z"},"&":{"x_min":0,"x_max":705,"ha":705,"o":"m 379 689 q 422 689 455 677 q 489 665 512 644 q 535 623 547 595 q 559 567 559 537 l 487 523 q 472 520 464 524 q 456 527 452 541 q 444 566 425 582 q 405 599 370 599 q 346 599 327 591 q 309 583 296 570 q 283 557 276 539 q 269 521 269 501 q 269 479 279 456 q 290 433 315 407 l 479 221 q 498 250 510 282 q 523 314 530 348 q 532 359 538 366 q 543 373 556 373 l 640 373 q 632 309 607 251 q 583 194 545 146 l 675 0 l 571 0 q 557 0 546 2 q 536 4 527 8 q 519 12 512 18 q 505 25 498 34 l 465 70 q 416 33 357 13 q 298 -7 233 -7 q 184 -7 145 5 q 105 18 78 41 q 51 63 36 96 q 21 128 21 169 q 21 205 34 237 q 47 269 70 295 q 93 322 124 344 q 155 365 191 380 q 174 410 166 439 q 157 468 157 495 q 157 535 173 570 q 188 605 217 632 q 246 658 287 674 q 328 689 379 689 z m 257 87 q 297 87 334 101 q 371 114 403 139 l 239 320 q 188 292 166 258 q 144 224 144 184 q 144 162 152 144 q 160 126 174 113 q 189 101 210 94 q 230 87 257 87 z"},"_":{"x_min":0,"x_max":498,"ha":498,"o":"m 384 -62 l 374 -139 l 32 -139 l 42 -62 z"},"v":{"x_min":0,"x_max":469,"ha":469,"o":"m 32 485 l 134 485 q 146 485 154 478 q 162 472 164 462 l 207 215 q 211 190 214 167 q 217 143 219 120 q 226 143 235 167 q 244 190 255 215 l 359 462 q 364 472 373 479 q 382 485 394 485 l 491 485 l 255 0 l 150 0 z"},"O":{"x_min":0,"x_max":668,"ha":668,"o":"m 661 366 q 661 286 634 218 q 607 150 559 100 q 512 50 447 21 q 382 -7 305 -7 q 242 -7 191 15 q 140 37 105 76 q 69 115 50 167 q 31 220 31 282 q 31 362 58 430 q 85 499 133 549 q 180 599 245 627 q 311 656 387 656 q 451 656 501 634 q 552 611 587 573 q 623 534 642 481 q 661 428 661 366 z m 534 364 q 534 407 523 442 q 512 477 491 502 q 470 527 440 541 q 410 554 372 554 q 323 554 284 535 q 244 516 216 480 q 188 445 173 395 q 158 345 158 285 q 158 241 169 206 q 180 171 200 146 q 221 122 251 108 q 281 95 319 95 q 368 95 407 114 q 447 133 475 168 q 503 204 519 253 q 534 303 534 364 z"},"(":{"x_min":0,"x_max":312,"ha":312,"o":"m 171 203 q 171 171 174 135 q 176 100 181 63 q 187 27 194 -7 q 202 -42 213 -71 q 216 -81 216 -88 q 216 -96 214 -101 q 211 -107 206 -111 q 201 -115 196 -118 l 139 -150 q 120 -110 106 -66 q 92 -23 83 21 q 75 66 71 110 q 66 154 66 194 q 66 266 75 333 q 84 400 105 466 q 126 533 161 600 q 196 668 248 741 l 298 709 q 302 706 306 702 q 310 698 311 692 q 312 687 310 679 q 309 672 303 662 q 272 610 248 557 q 223 504 206 448 q 189 391 180 330 q 171 270 171 203 z"},"C":{"x_min":0,"x_max":519,"ha":519,"o":"m 293 98 q 319 98 338 102 q 357 106 371 112 q 384 119 394 126 q 404 133 411 140 q 419 146 425 150 q 431 154 438 154 q 444 154 448 152 q 452 149 454 147 l 497 94 q 455 45 399 19 q 344 -7 272 -7 q 214 -7 169 14 q 124 36 92 73 q 61 111 45 162 q 29 213 29 274 q 29 358 55 428 q 82 499 127 549 q 173 600 234 628 q 296 656 366 656 q 401 656 429 649 q 458 643 481 631 q 504 619 522 603 q 541 586 555 566 l 511 514 q 506 509 500 504 q 494 500 484 500 q 474 500 466 508 q 458 516 445 525 q 432 535 412 542 q 392 550 359 550 q 316 550 279 532 q 242 513 214 479 q 187 444 171 395 q 155 345 155 284 q 155 240 166 206 q 176 171 195 147 q 213 123 238 110 q 264 98 293 98 z"},"W":{"x_min":0,"x_max":907,"ha":907,"o":"m 57 648 l 153 648 q 170 648 179 641 q 189 634 191 621 l 250 236 q 252 221 254 204 q 256 186 257 167 q 263 186 269 204 q 275 221 281 236 l 447 621 q 451 631 463 640 q 475 648 490 648 l 519 648 q 535 648 544 641 q 554 633 556 621 l 626 236 q 628 222 631 204 q 633 187 634 168 q 640 187 645 204 q 651 220 656 235 l 811 621 q 815 631 828 640 q 841 648 856 648 l 954 648 l 680 0 l 568 0 l 491 438 q 489 448 488 458 q 486 469 485 481 q 477 457 469 438 l 282 0 l 171 0 z"},"A":{"x_min":0,"x_max":606,"ha":606,"o":"m 584 0 l 488 0 q 473 0 464 8 q 455 15 452 27 l 422 158 l 168 158 l 107 28 q 102 17 90 9 q 78 0 63 0 l -34 0 l 292 648 l 418 648 z m 209 245 l 403 245 l 355 456 q 352 471 348 491 q 345 512 341 536 q 333 512 324 491 q 315 471 309 455 z"},"f":{"x_min":0,"x_max":316,"ha":316,"o":"m 212 394 l 167 21 l 142 -66 q 135 -90 121 -103 q 106 -116 80 -116 l 29 -116 l 91 394 l 53 401 q 41 403 33 410 q 26 417 28 431 l 34 481 l 102 481 l 106 515 q 111 557 129 590 q 146 624 173 647 q 200 670 235 682 q 271 695 312 695 q 342 695 371 686 l 359 622 q 357 611 346 608 q 334 606 320 606 q 300 606 284 601 q 267 596 255 585 q 242 574 234 556 q 226 538 223 511 l 220 481 l 333 481 l 322 394 z"},"Q":{"x_min":0,"x_max":677,"ha":677,"o":"m 671 366 q 671 313 660 266 q 648 218 626 177 q 604 136 573 102 q 542 69 503 45 l 632 -126 l 531 -126 q 509 -126 492 -120 q 475 -114 463 -98 l 391 0 q 373 -3 354 -5 q 335 -7 316 -7 q 252 -7 202 15 q 151 37 115 76 q 80 115 61 167 q 42 220 42 282 q 42 362 69 430 q 96 499 143 549 q 191 599 256 627 q 321 656 398 656 q 461 656 512 634 q 562 611 598 573 q 633 534 652 481 q 671 428 671 366 z m 544 364 q 544 407 533 442 q 522 477 501 502 q 480 527 451 541 q 421 554 383 554 q 334 554 294 535 q 255 516 227 480 q 199 445 184 395 q 168 345 168 285 q 168 241 179 206 q 190 171 211 146 q 231 122 261 108 q 292 95 330 95 q 378 95 418 114 q 458 133 486 168 q 514 204 529 253 q 544 303 544 364 z"},"w":{"x_min":0,"x_max":745,"ha":745,"o":"m 34 485 l 128 485 q 141 485 149 478 q 158 472 159 462 l 192 215 q 194 193 196 172 q 197 152 198 131 q 206 152 214 172 q 222 193 230 215 l 343 463 q 347 473 356 479 q 365 485 376 485 l 429 485 q 442 485 450 479 q 458 473 459 463 l 505 215 q 509 193 512 172 q 515 151 517 130 q 523 151 529 172 q 536 192 544 215 l 643 462 q 647 472 656 479 q 666 485 677 485 l 767 485 l 556 0 l 460 0 q 445 0 441 21 l 388 291 q 386 301 385 310 q 384 320 383 330 q 379 320 376 310 q 373 300 369 291 l 247 21 q 238 0 220 0 l 128 0 z"},"-":{"x_min":0,"x_max":306,"ha":306,"o":"m 52 334 l 280 334 l 268 235 l 40 235 z"},"E":{"x_min":0,"x_max":488,"ha":488,"o":"m 504 648 l 493 550 l 224 550 l 202 374 l 412 374 l 400 279 l 190 279 l 168 98 l 437 98 l 425 0 l 31 0 l 111 648 z"},"s":{"x_min":0,"x_max":394,"ha":394,"o":"m 367 392 q 361 384 356 380 q 351 377 343 377 q 334 377 325 382 q 316 386 304 392 q 292 398 276 403 q 261 407 239 407 q 200 407 178 391 q 157 375 157 352 q 157 333 172 321 q 188 308 210 298 q 233 288 259 278 q 286 269 308 254 q 331 240 346 219 q 361 198 361 166 q 361 131 347 99 q 332 68 305 44 q 277 21 239 7 q 200 -7 151 -7 q 127 -7 104 -3 q 81 1 61 10 q 41 18 24 28 q 8 39 -4 52 l 26 98 q 31 106 39 111 q 46 115 58 115 q 68 115 77 109 q 85 103 97 96 q 108 88 125 83 q 141 77 167 77 q 188 77 203 82 q 219 86 230 95 q 241 104 246 115 q 252 125 252 138 q 252 153 243 164 q 234 175 220 183 q 206 190 188 197 q 169 203 150 209 q 131 216 113 225 q 94 234 80 247 q 66 260 57 279 q 48 297 48 324 q 48 356 61 386 q 74 417 99 440 q 125 463 161 478 q 198 492 246 492 q 295 492 333 476 q 372 460 397 436 z"},">":{"x_min":0,"x_max":498,"ha":498,"o":"m 49 96 l 60 185 q 61 195 67 203 q 73 211 85 217 l 256 300 q 279 311 308 317 q 295 321 283 325 q 271 330 261 335 l 109 418 q 99 424 95 433 q 92 441 93 451 l 104 539 l 454 342 l 450 305 l 448 293 z"},"l":{"x_min":0,"x_max":246,"ha":246,"o":"m 31 0 l 115 702 l 238 702 l 153 0 z"},"8":{"x_min":0,"x_max":507,"ha":507,"o":"m 239 -7 q 193 -7 156 5 q 119 18 93 41 q 67 63 53 96 q 39 128 39 168 q 39 202 46 232 q 54 262 71 286 q 87 310 113 328 q 138 346 173 357 q 135 375 117 408 q 98 440 98 484 q 98 528 115 565 q 133 603 163 631 q 194 659 235 674 q 276 690 324 690 q 365 690 398 677 q 432 665 455 643 q 479 621 491 591 q 504 561 504 526 q 504 465 476 422 q 448 378 393 355 q 442 336 465 301 q 488 266 488 217 q 488 166 469 124 q 450 83 417 54 q 384 24 338 9 q 292 -7 239 -7 z m 250 85 q 278 85 300 95 q 321 105 336 123 q 350 140 357 165 q 365 189 365 218 q 365 261 342 283 q 320 306 277 306 q 251 306 230 299 q 209 291 194 275 q 179 259 171 234 q 163 210 163 176 q 163 157 168 140 q 173 124 184 111 q 195 99 211 92 q 228 85 250 85 z m 288 400 q 313 400 332 409 q 351 418 363 435 q 375 451 381 473 q 387 495 387 520 q 387 536 383 550 q 379 564 370 576 q 361 587 347 594 q 333 600 313 600 q 287 600 269 591 q 250 581 238 565 q 226 549 220 528 q 214 506 214 483 q 214 467 218 452 q 222 437 230 426 q 239 414 253 407 q 268 400 288 400 z"},"\\":{"x_min":0,"x_max":425,"ha":425,"o":"m 41 687 l 91 687 q 113 687 128 675 q 144 664 149 644 l 386 -46 l 335 -46 q 326 -46 317 -43 q 307 -41 299 -35 q 291 -29 285 -21 q 278 -12 275 -1 z"},"e":{"x_min":0,"x_max":491,"ha":491,"o":"m 471 368 q 471 336 456 309 q 442 283 405 261 q 369 240 305 225 q 242 210 145 201 q 145 144 172 116 q 199 88 255 88 q 290 88 313 96 q 335 104 352 114 q 368 123 380 131 q 393 139 408 139 q 421 139 430 128 l 462 90 q 435 64 409 46 q 383 28 356 16 q 328 4 298 -2 q 267 -7 231 -7 q 185 -7 146 7 q 108 22 81 49 q 54 76 39 114 q 24 152 24 199 q 24 256 44 309 q 63 362 100 402 q 136 443 188 467 q 239 492 303 492 q 345 492 377 481 q 408 470 429 452 q 450 434 460 412 q 471 390 471 368 z m 297 406 q 271 406 248 397 q 226 388 208 371 q 189 355 176 332 q 163 309 155 281 q 221 289 261 298 q 301 307 323 317 q 345 328 352 340 q 359 352 359 365 q 359 373 356 380 q 353 387 345 393 q 337 398 326 402 q 314 406 297 406 z"},"b":{"x_min":0,"x_max":528,"ha":528,"o":"m 29 0 l 113 702 l 235 702 l 197 392 q 232 438 275 465 q 317 492 366 492 q 397 492 423 481 q 449 470 467 448 q 485 425 495 391 q 505 356 505 310 q 505 248 486 190 q 467 133 434 89 q 400 45 356 19 q 312 -7 262 -7 q 224 -7 194 7 q 164 22 143 47 l 139 34 q 134 17 125 8 q 116 0 96 0 z m 318 396 q 298 396 278 382 q 258 369 239 346 q 220 324 204 293 q 188 262 177 227 l 163 115 q 180 100 201 93 q 222 86 242 86 q 273 86 299 105 q 325 124 344 154 q 362 184 372 221 q 382 259 382 297 q 382 348 365 372 q 348 396 318 396 z"},"%":{"x_min":0,"x_max":729,"ha":729,"o":"m 367 542 q 367 497 352 461 q 337 425 312 400 q 288 375 256 362 q 225 348 191 348 q 162 348 137 358 q 113 369 95 388 q 78 407 68 434 q 59 460 59 494 q 59 538 72 574 q 86 610 110 636 q 133 661 165 675 q 197 689 233 689 q 263 689 288 678 q 312 668 330 649 q 348 629 357 602 q 367 575 367 542 z m 275 541 q 275 580 260 596 q 246 612 224 612 q 208 612 195 606 q 181 600 171 585 q 162 571 156 549 q 150 526 150 494 q 150 456 164 441 q 178 425 201 425 q 216 425 230 431 q 244 437 253 451 q 263 464 269 486 q 275 508 275 541 z m 599 664 q 604 670 614 676 q 623 682 639 682 l 726 682 l 155 18 q 149 10 139 5 q 130 0 117 0 l 29 0 z m 695 185 q 695 140 680 104 q 665 69 640 44 q 616 19 584 5 q 552 -8 519 -8 q 489 -8 465 2 q 440 13 423 32 q 405 51 396 77 q 386 104 386 137 q 386 181 399 218 q 413 254 437 279 q 461 305 493 319 q 525 333 561 333 q 591 333 616 322 q 641 312 658 292 q 676 273 686 246 q 695 219 695 185 z m 603 184 q 603 223 588 239 q 574 255 552 255 q 536 255 523 249 q 509 242 500 228 q 490 214 484 192 q 479 169 479 137 q 479 100 492 84 q 506 68 528 68 q 544 68 557 74 q 571 81 581 94 q 591 108 597 130 q 603 152 603 184 z"},"m":{"x_min":0,"x_max":804,"ha":804,"o":"m 27 0 l 85 485 l 148 485 q 168 485 179 476 q 190 466 190 445 l 188 394 q 223 444 264 468 q 305 492 350 492 q 398 492 426 462 q 454 432 458 375 q 495 436 539 464 q 583 492 636 492 q 669 492 694 480 q 719 468 735 444 q 751 421 757 387 q 762 353 757 309 l 721 0 l 599 0 l 635 309 q 641 354 631 372 q 622 391 592 391 q 573 391 554 382 q 536 372 519 354 q 502 336 488 310 q 474 284 464 251 l 464 250 l 435 0 l 312 0 l 349 309 q 354 353 346 372 q 337 391 308 391 q 287 391 268 381 q 249 371 232 351 q 215 332 201 305 q 187 278 177 244 l 148 0 z"},"#":{"x_min":0,"x_max":498,"ha":498,"o":"m 358 191 l 303 0 l 247 0 q 239 0 232 4 q 226 8 222 15 q 218 21 218 31 q 217 40 220 50 l 261 191 l 180 191 l 140 43 q 136 32 130 23 q 124 15 116 10 q 108 5 99 2 q 90 0 81 0 l 27 0 l 83 191 l 38 191 q 20 191 13 202 q 7 213 15 239 l 26 277 l 104 277 l 141 406 l 51 406 l 66 455 q 73 474 86 482 q 99 491 125 491 l 163 491 l 205 642 q 211 661 226 672 q 242 682 261 682 l 316 682 l 260 491 l 339 491 l 395 682 l 449 682 q 467 682 477 670 q 486 659 480 641 l 438 491 l 524 491 l 508 441 q 502 423 489 414 q 476 406 450 406 l 416 406 l 379 277 l 435 277 q 453 277 459 266 q 466 256 458 229 l 447 191 z m 202 277 l 282 277 l 318 406 l 239 406 z"},",":{"x_min":0,"x_max":258,"ha":258,"o":"m 39 75 q 39 88 44 101 q 49 113 59 122 q 68 130 81 135 q 94 141 110 141 q 129 141 143 134 q 157 127 166 116 q 175 104 179 90 q 184 75 184 58 q 184 35 177 10 q 170 -16 156 -41 q 143 -67 123 -91 q 103 -115 77 -135 l 55 -116 q 46 -107 46 -98 q 46 -91 54 -82 q 62 -72 72 -60 q 83 -48 93 -32 q 103 -17 107 2 q 92 2 79 8 q 67 14 58 23 q 49 33 44 46 q 39 59 39 75 z"},"n":{"x_min":0,"x_max":527,"ha":527,"o":"m 24 0 l 83 485 l 146 485 q 166 485 177 476 q 188 466 187 445 l 184 387 q 222 440 268 466 q 314 492 363 492 q 394 492 419 480 q 444 468 461 444 q 477 421 484 387 q 490 353 485 309 l 449 0 l 325 0 l 361 309 q 367 354 356 372 q 345 391 315 391 q 295 391 274 380 q 253 369 234 348 q 215 328 199 299 q 183 270 174 234 l 148 0 z"},"h":{"x_min":0,"x_max":527,"ha":527,"o":"m 28 0 l 113 702 l 237 702 l 201 406 q 236 450 278 471 q 320 492 364 492 q 395 492 420 480 q 445 468 462 444 q 478 421 485 387 q 491 353 486 309 l 449 0 l 326 0 l 362 309 q 368 354 357 373 q 346 392 317 392 q 299 392 280 382 q 260 372 242 354 q 224 335 208 310 q 193 284 182 252 l 152 0 z"},"z":{"x_min":0,"x_max":397,"ha":397,"o":"m 398 434 q 396 421 391 408 q 385 396 377 387 l 157 95 l 352 95 l 340 0 l -1 0 l 5 52 q 6 60 12 72 q 17 83 25 94 l 247 390 l 58 390 l 70 485 l 404 485 z"},"B":{"x_min":0,"x_max":561,"ha":561,"o":"m 32 0 l 111 648 l 329 648 q 386 648 426 638 q 467 627 492 608 q 518 588 530 561 q 542 533 542 499 q 542 472 534 447 q 527 422 511 401 q 496 379 471 362 q 447 345 413 334 q 523 306 523 209 q 523 165 506 127 q 489 88 456 60 q 424 32 377 16 q 330 0 271 0 z m 190 283 l 167 96 l 280 96 q 312 96 335 104 q 358 112 373 127 q 387 142 394 163 q 401 183 401 208 q 401 243 378 263 q 355 283 303 283 z m 200 368 l 288 368 q 350 368 383 394 q 417 420 417 478 q 417 518 393 536 q 369 554 319 554 l 223 554 z"},"K":{"x_min":0,"x_max":547,"ha":547,"o":"m 194 377 l 216 377 q 231 377 241 382 q 252 386 260 397 l 421 623 q 433 638 446 643 q 460 648 479 648 l 585 648 l 381 379 q 371 366 361 358 q 351 349 339 344 q 354 338 364 329 q 374 319 382 303 l 520 0 l 410 0 q 399 0 392 2 q 384 3 379 7 q 374 10 371 14 q 367 19 364 24 l 257 262 q 252 274 242 279 q 232 284 214 284 l 183 284 l 147 0 l 25 0 l 104 649 l 228 649 z"},"R":{"x_min":0,"x_max":563,"ha":563,"o":"m 188 252 l 157 0 l 34 0 l 113 648 l 306 648 q 364 648 406 636 q 448 624 475 602 q 502 581 515 551 q 527 521 527 485 q 527 448 517 415 q 506 382 486 355 q 465 328 436 308 q 407 288 370 276 q 392 263 404 238 l 524 0 l 413 0 q 397 0 387 7 q 376 13 371 24 l 274 229 q 269 241 260 247 q 251 252 234 252 z m 225 554 l 199 339 l 267 339 q 303 339 329 349 q 354 359 371 376 q 388 394 396 417 q 404 440 404 466 q 404 508 377 531 q 351 554 294 554 z"},"T":{"x_min":0,"x_max":495,"ha":495,"o":"m 538 648 l 525 547 l 349 547 l 282 0 l 159 0 l 226 547 l 50 547 l 62 648 z"},"P":{"x_min":0,"x_max":532,"ha":532,"o":"m 184 227 l 156 0 l 33 0 l 112 648 l 317 648 q 375 648 416 635 q 457 622 483 597 q 509 573 522 540 q 535 507 535 468 q 535 416 518 371 q 501 327 468 295 q 435 263 384 245 q 333 227 266 227 z m 225 554 l 196 323 l 277 323 q 312 323 337 333 q 362 342 378 360 q 395 378 402 403 q 410 428 410 458 q 410 479 404 497 q 397 515 385 528 q 372 540 352 547 q 333 554 306 554 z"},"|":{"x_min":0,"x_max":475,"ha":475,"o":"m 161 730 l 257 730 l 257 -157 l 161 -157 z"},"t":{"x_min":0,"x_max":347,"ha":347,"o":"m 71 106 q 71 110 72 115 q 72 121 73 130 q 73 139 74 151 q 76 164 78 182 l 104 394 l 58 394 q 49 394 44 400 q 38 407 40 419 l 45 469 l 121 483 l 161 611 q 167 631 188 631 l 255 631 l 236 481 l 356 481 l 346 394 l 225 394 l 200 188 q 197 170 196 159 q 195 147 194 141 q 193 135 193 132 q 193 129 193 128 q 193 111 202 102 q 211 92 228 92 q 237 92 244 94 q 251 96 256 99 q 262 102 266 104 q 270 106 273 106 q 283 106 288 95 l 315 35 q 288 14 255 3 q 223 -7 189 -7 q 162 -7 140 0 q 119 7 103 22 q 88 36 80 57 q 71 79 71 106 z"},"M":{"x_min":0,"x_max":874,"ha":874,"o":"m 416 267 q 420 254 424 241 q 428 229 431 215 q 443 243 458 266 l 717 627 q 726 641 734 645 q 743 648 758 648 l 853 648 l 773 0 l 664 0 l 718 410 q 720 424 723 442 q 726 459 730 478 l 473 104 q 457 78 426 78 l 409 78 q 395 78 384 84 q 374 91 368 104 l 204 475 q 204 458 203 441 q 202 425 201 412 l 148 0 l 39 0 l 118 648 l 211 648 q 219 648 225 648 q 230 647 235 645 q 239 643 243 639 q 247 635 251 629 l 416 267 z"},"g":{"x_min":0,"x_max":528,"ha":528,"o":"m 446 343 q 446 322 441 305 q 436 289 429 274 q 422 260 414 247 q 405 234 398 221 q 391 208 386 194 q 381 179 381 162 q 381 142 389 125 q 397 108 408 91 q 418 74 427 55 q 435 35 435 10 q 435 -27 418 -59 q 402 -91 370 -116 q 339 -140 293 -154 q 248 -168 190 -168 q 143 -168 105 -159 q 67 -150 40 -134 q 13 -117 -1 -94 q -16 -72 -16 -45 q -16 -12 -1 13 q 14 38 39 54 q 63 71 96 81 q 128 91 163 95 q 197 99 232 98 q 267 97 297 92 q 292 105 292 122 q 292 135 296 149 q 299 164 307 181 q 289 168 265 162 q 241 155 207 155 q 178 155 152 165 q 125 174 105 192 q 85 211 74 239 q 62 267 62 304 q 62 339 76 373 q 90 407 117 434 q 144 460 184 476 q 225 492 277 492 q 305 492 330 486 q 355 479 377 467 l 521 467 l 516 427 q 515 416 509 408 q 502 399 491 396 l 440 383 q 443 374 444 364 q 445 354 446 343 z m 242 229 q 264 229 281 238 q 297 248 309 263 q 320 279 326 298 q 332 318 332 338 q 332 373 314 392 q 297 410 264 410 q 242 410 226 401 q 209 392 198 377 q 186 362 180 343 q 175 324 175 303 q 175 268 192 248 q 209 229 242 229 z m 323 0 q 323 5 322 11 q 322 16 321 21 q 262 31 221 30 q 179 29 153 21 q 126 13 114 0 q 102 -14 102 -29 q 102 -57 126 -71 q 150 -86 199 -86 q 227 -86 250 -79 q 272 -73 289 -62 q 305 -50 314 -35 q 323 -19 323 0 z"},"j":{"x_min":0,"x_max":255,"ha":255,"o":"m 218 485 l 157 -12 q 153 -44 140 -73 q 128 -102 107 -123 q 85 -144 55 -156 q 24 -169 -15 -169 q -35 -169 -49 -167 q -63 -165 -78 -160 l -65 -94 q -63 -84 -56 -81 q -50 -78 -33 -78 q -16 -78 -4 -74 q 8 -71 16 -63 q 23 -56 28 -43 q 33 -31 35 -12 l 97 485 z m 245 624 q 245 608 238 594 q 231 580 220 570 q 209 560 195 553 q 181 547 166 547 q 151 547 138 553 q 124 560 114 570 q 103 581 97 595 q 90 609 90 625 q 90 640 97 654 q 103 668 113 679 q 124 689 137 696 q 151 702 166 702 q 181 702 195 695 q 209 689 220 678 q 231 668 238 654 q 245 640 245 624 z"},"i":{"x_min":0,"x_max":246,"ha":246,"o":"m 213 485 l 155 0 l 33 0 l 91 485 z m 242 624 q 242 608 236 594 q 229 581 218 570 q 207 560 193 553 q 179 547 165 547 q 150 547 137 553 q 124 560 113 570 q 103 581 97 594 q 90 608 90 624 q 90 640 97 654 q 103 668 114 678 q 124 689 137 695 q 151 702 166 702 q 180 702 194 696 q 208 689 219 679 q 229 668 236 654 q 242 640 242 624 z"},"y":{"x_min":0,"x_max":470,"ha":470,"o":"m 180 -132 q 167 -157 141 -157 l 48 -157 l 156 38 l 36 485 l 140 485 q 153 485 160 478 q 167 472 169 462 l 223 223 q 225 210 227 198 q 229 185 231 172 q 236 185 242 198 q 248 211 254 224 l 364 462 q 369 472 378 479 q 388 485 397 485 l 497 485 z"},"@":{"x_min":0,"x_max":898,"ha":898,"o":"m 579 86 q 550 86 529 101 q 507 115 501 148 q 471 115 441 101 q 410 87 376 87 q 352 87 334 96 q 316 104 305 120 q 293 135 287 155 q 281 176 281 200 q 281 229 289 259 q 296 289 311 317 q 326 345 348 370 q 370 395 399 414 q 428 432 464 443 q 500 454 543 454 q 561 454 576 452 q 590 451 603 448 q 615 446 626 442 q 637 438 648 433 l 585 257 q 575 228 573 209 q 570 190 573 179 q 577 168 585 164 q 594 160 605 160 q 626 160 645 176 q 663 192 677 220 q 691 248 700 286 q 708 324 708 368 q 708 418 694 457 q 680 496 654 522 q 627 549 590 562 q 553 576 506 576 q 444 576 390 549 q 336 522 297 475 q 257 428 235 363 q 212 299 212 224 q 212 160 229 112 q 247 63 278 30 q 310 -3 354 -20 q 398 -37 452 -37 q 486 -37 515 -33 q 544 -29 567 -23 q 591 -17 609 -9 q 627 -1 640 6 q 650 12 659 13 q 667 14 673 11 q 678 9 682 4 q 686 -1 687 -7 l 696 -41 q 648 -73 585 -93 q 522 -114 443 -114 q 371 -114 312 -90 q 254 -67 212 -23 q 170 20 148 82 q 125 143 125 219 q 125 278 139 333 q 153 388 179 436 q 205 484 240 524 q 276 563 319 592 q 363 621 413 636 q 462 652 516 652 q 573 652 623 632 q 674 612 711 575 q 749 538 771 486 q 792 433 792 368 q 792 309 776 258 q 759 206 730 168 q 701 130 662 108 q 624 86 579 86 z m 410 164 q 420 164 431 168 q 442 171 453 181 q 464 190 474 206 q 484 221 492 245 l 540 377 q 534 378 527 379 q 521 380 515 380 q 487 380 462 366 q 437 352 417 328 q 398 305 386 275 q 375 245 375 213 q 375 189 384 177 q 393 164 410 164 z"},".":{"x_min":0,"x_max":267,"ha":267,"o":"m 41 67 q 41 82 47 96 q 52 109 62 119 q 72 129 86 135 q 100 141 115 141 q 131 141 145 135 q 158 129 168 119 q 178 109 184 96 q 190 82 190 67 q 190 51 184 38 q 178 24 168 14 q 158 4 145 -1 q 131 -7 115 -7 q 100 -7 86 -1 q 72 4 62 14 q 52 24 47 38 q 41 51 41 67 z"},"p":{"x_min":0,"x_max":528,"ha":528,"o":"m 6 -157 l 84 485 l 148 485 q 167 485 178 476 q 189 466 188 445 l 186 378 q 222 431 268 461 q 314 492 367 492 q 399 492 425 481 q 451 470 470 448 q 488 425 498 391 q 508 356 508 309 q 508 268 500 228 q 491 189 474 154 q 458 119 436 89 q 413 60 385 38 q 358 17 327 5 q 295 -7 262 -7 q 227 -7 199 4 q 171 16 150 36 l 127 -157 z m 318 396 q 298 396 278 382 q 257 369 238 346 q 218 324 202 293 q 185 262 174 227 l 160 116 q 177 100 199 93 q 220 86 242 86 q 274 86 301 105 q 327 124 346 153 q 365 183 375 221 q 385 258 385 297 q 385 347 368 371 q 350 396 318 396 z"},"X":{"x_min":0,"x_max":551,"ha":551,"o":"m 207 347 l 71 648 l 183 648 q 196 648 201 645 q 206 642 209 634 l 298 417 q 302 425 308 433 l 431 632 q 437 640 443 644 q 449 648 458 648 l 587 648 l 376 353 l 527 0 l 417 0 q 404 0 398 7 q 391 13 388 21 l 289 272 q 287 269 285 266 q 284 263 282 261 l 130 21 q 115 0 92 0 l -31 0 z"},"*":{"x_min":0,"x_max":498,"ha":498,"o":"m 238 393 l 249 479 q 251 499 258 513 q 247 502 229 492 l 158 449 l 136 497 l 207 541 q 216 545 225 549 q 234 552 243 554 q 226 556 210 567 l 149 611 l 183 659 l 245 615 q 251 610 258 605 q 264 600 269 594 q 266 602 266 611 q 266 619 267 628 l 278 714 l 335 714 l 324 629 q 322 609 314 594 q 320 600 328 605 q 335 610 344 616 l 416 658 l 438 610 l 366 567 q 356 562 348 559 q 339 555 330 554 q 347 551 362 541 l 423 496 l 390 449 l 329 492 q 321 497 315 502 q 309 507 304 514 q 308 499 306 479 l 295 393 z"},"Y":{"x_min":0,"x_max":520,"ha":520,"o":"m 328 254 l 296 0 l 172 0 l 204 250 l 48 648 l 158 648 q 174 648 183 641 q 192 634 196 621 l 262 404 q 268 387 272 371 q 277 355 280 340 q 295 370 316 404 l 435 621 q 441 631 452 640 q 462 648 478 648 l 581 648 z"},"c":{"x_min":0,"x_max":412,"ha":412,"o":"m 397 86 q 374 60 352 42 q 330 24 307 13 q 284 2 259 -3 q 234 -7 203 -7 q 161 -7 127 7 q 94 21 71 48 q 47 75 35 112 q 22 149 22 196 q 22 235 31 273 q 40 310 56 343 q 72 375 95 403 q 118 431 146 450 q 175 470 208 481 q 242 492 279 492 q 328 492 362 475 q 396 458 422 423 l 382 377 q 378 372 373 368 q 367 365 360 365 q 352 365 345 369 q 338 374 330 379 q 322 385 309 389 q 297 394 277 394 q 251 394 228 380 q 204 366 186 340 q 168 314 157 277 q 146 241 146 195 q 146 144 169 116 q 192 88 230 88 q 256 88 273 96 q 290 103 301 112 q 313 121 323 128 q 332 135 344 135 q 350 135 356 132 q 361 129 366 124 l 397 86 z"},"!":{"x_min":0,"x_max":326,"ha":326,"o":"m 275 683 l 243 413 q 237 370 228 328 q 218 287 206 240 l 125 240 q 123 287 124 328 q 125 370 130 413 l 164 683 z m 76 67 q 76 82 82 96 q 87 109 97 119 q 107 129 121 135 q 135 141 150 141 q 166 141 180 135 q 193 129 203 119 q 213 109 219 96 q 225 82 225 67 q 225 51 219 38 q 213 24 203 14 q 193 4 180 -1 q 166 -7 150 -7 q 135 -7 121 -1 q 107 4 97 14 q 87 24 82 38 q 76 51 76 67 z"},"/":{"x_min":0,"x_max":434,"ha":434,"o":"m 69 -1 q 64 -12 56 -21 q 49 -29 40 -35 q 31 -41 21 -43 q 11 -46 2 -46 l -49 -46 l 367 644 q 376 664 393 675 q 410 687 432 687 l 483 687 z"},"[":{"x_min":0,"x_max":325,"ha":325,"o":"m 31 -146 l 138 729 l 323 729 l 318 683 q 316 670 306 661 q 296 653 283 653 l 229 653 l 140 -69 l 195 -69 q 208 -69 216 -78 q 224 -87 222 -100 l 216 -146 z"},"6":{"x_min":0,"x_max":507,"ha":507,"o":"m 277 436 q 271 429 266 423 q 260 417 255 411 q 273 418 293 423 q 312 427 334 427 q 367 427 396 416 q 426 405 448 383 q 471 360 485 328 q 499 295 499 252 q 499 198 479 151 q 459 104 425 68 q 391 33 344 13 q 296 -7 241 -7 q 195 -7 158 8 q 122 22 97 50 q 72 77 59 115 q 46 152 46 198 q 46 229 52 259 q 59 289 71 318 q 84 347 103 376 q 122 406 147 438 l 322 654 q 332 666 349 674 q 367 683 389 683 l 495 683 z m 160 192 q 160 169 165 151 q 171 132 182 118 q 193 105 211 97 q 228 90 251 90 q 277 90 300 101 q 323 111 340 130 q 357 149 367 176 q 377 202 377 233 q 377 282 352 310 q 326 337 281 337 q 255 337 233 327 q 211 316 195 297 q 178 277 169 251 q 160 224 160 192 z"},"r":{"x_min":0,"x_max":352,"ha":352,"o":"m 24 0 l 82 485 l 146 485 q 165 485 176 476 q 188 466 187 445 l 184 371 q 203 406 224 431 q 245 457 268 471 q 292 485 316 487 q 340 490 364 479 l 342 361 q 312 374 286 371 q 260 369 239 350 q 217 332 200 296 q 183 261 170 208 l 146 0 z"},"2":{"x_min":0,"x_max":507,"ha":507,"o":"m 330 655 q 370 655 403 644 q 436 632 458 610 q 481 589 494 559 q 506 529 506 493 q 506 453 494 419 q 481 385 460 355 q 439 325 410 297 q 382 269 350 239 l 192 92 q 214 98 236 101 q 257 105 276 105 l 430 105 q 448 105 457 94 q 467 84 464 67 l 457 0 l 21 0 l 25 38 q 27 49 33 61 q 39 74 51 85 l 265 281 q 296 309 320 334 q 343 359 358 383 q 374 407 381 431 q 389 456 389 483 q 389 521 368 540 q 348 560 312 560 q 293 560 277 554 q 261 549 247 539 q 234 529 223 516 q 213 503 207 488 q 197 466 184 459 q 170 453 147 457 l 88 467 q 101 514 125 549 q 148 584 179 608 q 211 631 249 643 q 287 655 330 655 z"},"{":{"x_min":0,"x_max":344,"ha":344,"o":"m 97 207 q 97 229 87 243 q 77 257 54 257 l 63 326 q 98 326 111 356 q 124 385 124 445 q 124 452 123 461 q 123 470 123 480 q 122 490 122 500 q 122 509 122 517 q 122 568 133 607 q 145 647 168 674 q 191 701 227 715 q 263 729 312 729 l 334 729 l 328 676 q 327 670 324 666 q 321 661 316 658 q 312 655 308 654 q 303 653 300 653 l 298 653 q 267 653 250 631 q 233 609 229 570 q 227 545 226 523 q 226 500 225 479 q 225 458 225 438 q 224 418 222 398 q 218 359 197 331 q 175 302 140 292 q 168 282 183 258 q 197 234 197 205 q 197 177 191 151 q 186 125 178 99 q 171 73 165 47 q 159 21 159 -8 q 159 -36 171 -52 q 184 -69 209 -69 l 211 -69 q 215 -69 219 -70 q 223 -72 227 -75 q 230 -78 232 -82 q 234 -87 233 -93 l 227 -146 l 204 -146 q 165 -146 137 -136 q 109 -126 91 -108 q 72 -90 63 -65 q 55 -40 55 -10 q 55 21 61 48 q 68 76 76 102 q 84 128 91 154 q 97 180 97 207 z"},"9":{"x_min":0,"x_max":507,"ha":507,"o":"m 321 251 q 330 260 337 269 q 344 277 351 286 q 328 272 302 265 q 275 258 248 258 q 218 258 190 269 q 163 279 141 299 q 120 320 107 350 q 94 380 94 420 q 94 468 112 511 q 131 554 164 586 q 196 618 241 637 q 286 655 339 655 q 383 655 418 642 q 453 628 477 603 q 501 579 514 544 q 526 510 526 469 q 526 435 520 405 q 513 375 500 347 q 487 319 469 292 q 451 265 428 237 l 259 26 q 250 15 234 7 q 218 0 198 0 l 93 0 z m 418 469 q 418 513 393 538 q 368 563 326 563 q 300 563 279 554 q 257 544 241 527 q 226 510 217 486 q 208 461 208 433 q 208 390 231 367 q 254 344 297 344 q 325 344 348 353 q 370 363 386 380 q 401 396 410 419 q 418 442 418 469 z"}," ":{"x_min":0,"x_max":226,"ha":226,"o":""},"I":{"x_min":0,"x_max":267,"ha":267,"o":"m 168 0 l 44 0 l 123 648 l 248 648 z"},"H":{"x_min":0,"x_max":631,"ha":631,"o":"m 547 0 l 422 0 l 457 283 l 188 283 l 154 0 l 29 0 l 109 648 l 234 648 l 199 370 l 468 370 l 502 648 l 626 648 z"},"4":{"x_min":0,"x_max":507,"ha":507,"o":"m 430 245 l 507 245 l 500 180 q 499 170 492 164 q 485 157 474 157 l 419 157 l 400 0 l 302 0 l 321 157 l 56 157 q 45 157 37 164 q 29 171 28 182 l 23 239 l 372 648 l 480 648 z m 358 453 q 359 467 362 483 q 365 499 369 517 l 145 245 l 332 245 z"},"~":{"x_min":0,"x_max":498,"ha":498,"o":"m 296 309 q 322 309 336 326 q 350 342 350 372 l 450 372 q 450 334 440 304 q 431 274 412 253 q 393 231 366 220 q 339 208 304 208 q 279 208 257 215 q 234 221 214 228 q 194 236 177 242 q 159 248 145 248 q 119 248 105 232 q 91 215 91 186 l -9 186 q -9 223 1 253 q 11 284 30 305 q 48 326 75 338 q 103 349 137 349 q 162 349 185 343 q 208 336 228 329 q 248 322 265 315 q 282 309 296 309 z"},"D":{"x_min":0,"x_max":630,"ha":630,"o":"m 622 366 q 622 286 595 219 q 568 151 521 103 q 473 54 408 27 q 343 0 266 0 l 30 0 l 110 648 l 346 648 q 410 648 461 627 q 512 606 548 568 q 583 531 603 479 q 622 427 622 366 z m 495 363 q 495 406 484 440 q 473 475 452 500 q 432 524 402 538 q 372 551 333 551 l 223 551 l 167 98 l 277 98 q 327 98 367 116 q 407 135 435 169 q 464 204 479 252 q 495 301 495 363 z"},"^":{"x_min":0,"x_max":498,"ha":498,"o":"m 489 365 l 398 365 q 387 365 380 371 q 373 376 368 385 l 297 515 q 282 542 274 565 q 266 541 251 515 l 183 385 q 178 377 171 371 q 163 365 150 365 l 55 365 l 232 683 l 312 683 z"},"0":{"x_min":0,"x_max":507,"ha":507,"o":"m 517 390 q 517 289 495 215 q 473 140 435 91 q 396 42 346 18 q 295 -7 238 -7 q 194 -7 158 10 q 122 26 96 59 q 70 92 55 142 q 41 192 41 259 q 41 359 63 433 q 85 508 123 557 q 160 606 211 631 q 262 655 319 655 q 362 655 399 639 q 435 623 461 589 q 487 556 502 506 q 517 457 517 390 z m 400 394 q 400 442 393 474 q 385 506 373 526 q 360 545 343 553 q 326 562 308 562 q 280 562 253 546 q 226 531 204 495 q 183 459 170 400 q 157 341 157 253 q 157 205 165 173 q 172 142 184 122 q 197 103 213 94 q 230 86 249 86 q 276 86 304 102 q 331 117 353 152 q 374 188 387 247 q 400 306 400 394 z"},"F":{"x_min":0,"x_max":459,"ha":459,"o":"m 475 550 l 220 550 l 197 361 l 411 361 l 398 262 l 185 262 l 152 0 l 28 0 l 107 648 l 487 648 z"},"`":{"x_min":0,"x_max":300,"ha":300,"o":"m 222 689 q 241 689 249 683 q 257 677 263 665 l 310 550 l 241 550 q 228 550 220 554 q 212 558 205 566 l 110 689 z"},"k":{"x_min":0,"x_max":480,"ha":480,"o":"m 235 702 l 186 302 l 197 302 q 208 302 215 306 q 222 309 229 318 l 347 464 q 355 474 364 479 q 374 485 388 485 l 499 485 l 350 307 q 340 296 331 288 q 321 279 311 273 q 319 266 326 256 q 333 246 338 234 l 448 0 l 340 0 q 327 0 318 5 q 309 10 303 21 l 221 202 q 215 213 210 217 q 204 220 190 220 l 175 220 l 148 0 l 26 0 l 112 702 z"},"u":{"x_min":0,"x_max":527,"ha":527,"o":"m 201 485 l 164 177 q 159 132 170 113 q 181 94 209 94 q 229 94 249 104 q 269 114 287 133 q 306 152 322 178 q 338 205 348 238 l 377 485 l 501 485 l 442 0 l 380 0 q 334 0 336 42 l 338 93 q 300 42 255 18 q 210 -7 163 -7 q 131 -7 106 5 q 81 17 64 41 q 48 64 41 98 q 35 133 40 177 l 77 485 z"},"]":{"x_min":0,"x_max":325,"ha":325,"o":"m 124 729 l 309 729 l 201 -146 l 16 -146 l 22 -99 q 23 -86 33 -78 q 42 -69 56 -69 l 111 -69 l 200 653 l 145 653 q 131 653 124 661 q 116 670 117 683 z"},"U":{"x_min":0,"x_max":653,"ha":653,"o":"m 309 99 q 343 99 372 111 q 401 122 422 143 q 444 165 458 194 q 471 224 476 260 l 523 648 l 647 648 l 599 260 q 592 202 567 153 q 542 104 503 69 q 464 33 412 13 q 359 -7 296 -7 q 234 -7 186 13 q 139 33 108 69 q 77 104 64 153 q 52 202 59 260 l 106 648 l 229 648 l 182 260 q 178 224 184 194 q 189 165 206 143 q 222 122 248 111 q 273 99 309 99 z"},"o":{"x_min":0,"x_max":527,"ha":527,"o":"m 236 87 q 269 87 295 104 q 321 120 339 147 q 357 174 367 210 q 377 246 377 285 q 377 344 354 371 q 332 398 285 398 q 253 398 227 382 q 201 366 182 339 q 164 312 154 276 q 145 240 145 200 q 145 142 167 115 q 190 87 236 87 z m 227 -7 q 182 -7 144 6 q 106 20 79 46 q 52 73 36 111 q 21 150 21 200 q 21 263 42 316 q 64 370 101 409 q 139 448 188 470 q 238 493 295 493 q 339 493 377 479 q 415 465 442 439 q 470 413 485 374 q 501 335 501 286 q 501 224 479 170 q 458 117 421 77 q 383 38 333 15 q 283 -7 227 -7 z"},"N":{"x_min":0,"x_max":656,"ha":656,"o":"m 177 648 q 185 648 191 648 q 196 647 200 645 q 205 643 208 639 q 211 635 215 629 l 482 196 q 483 210 485 224 q 486 237 487 249 l 537 648 l 646 648 l 567 0 l 503 0 q 489 0 479 5 q 470 10 463 21 l 196 454 q 195 442 194 431 q 193 420 192 411 l 142 0 l 32 0 l 112 648 l 177 648 z"},"+":{"x_min":0,"x_max":498,"ha":498,"o":"m 336 553 l 313 361 l 495 361 l 484 272 l 302 272 l 278 79 l 181 79 l 205 272 l 23 272 l 35 361 l 215 361 l 239 553 z"},"G":{"x_min":0,"x_max":637,"ha":637,"o":"m 339 91 q 378 91 408 98 q 438 105 466 118 l 480 234 l 403 234 q 392 234 385 240 q 379 246 380 256 l 388 326 l 603 326 l 571 62 q 545 44 517 31 q 488 18 457 10 q 426 1 392 -3 q 357 -7 318 -7 q 254 -7 202 15 q 149 37 112 76 q 74 115 54 168 q 33 221 33 284 q 33 365 61 433 q 89 501 139 551 q 188 601 256 628 q 323 656 402 656 q 445 656 479 649 q 514 642 542 629 q 569 617 591 601 q 613 585 631 567 l 591 515 q 582 502 568 499 q 554 496 540 506 q 526 515 512 523 q 498 531 481 537 q 464 543 443 547 q 422 550 394 550 q 342 550 299 531 q 256 512 225 478 q 194 443 177 395 q 160 347 160 288 q 160 242 173 205 q 186 169 209 143 q 232 118 265 104 q 298 91 339 91 z"},"q":{"x_min":0,"x_max":528,"ha":528,"o":"m 417 -157 l 336 -157 q 325 -157 317 -153 q 310 -148 305 -142 q 301 -135 299 -127 q 298 -119 299 -111 l 324 88 q 291 43 250 18 q 209 -7 161 -7 q 131 -7 105 3 q 79 14 59 36 q 40 58 29 91 q 18 124 18 168 q 18 212 30 253 q 41 293 62 330 q 84 366 114 396 q 145 425 182 447 q 220 468 263 480 q 307 492 355 492 q 391 492 426 487 q 461 482 495 470 z m 208 94 q 229 94 250 107 q 270 121 288 144 q 306 167 321 198 q 336 229 347 265 l 347 266 l 365 404 q 358 404 352 405 q 345 405 339 405 q 297 405 261 387 q 225 370 198 341 q 172 312 157 273 q 142 234 142 190 q 142 139 159 116 q 177 94 208 94 z"},"d":{"x_min":0,"x_max":528,"ha":528,"o":"m 372 0 q 348 0 339 12 q 331 24 332 41 l 334 103 q 299 52 254 22 q 209 -7 159 -7 q 127 -7 102 4 q 76 15 58 37 q 40 60 30 94 q 20 129 20 176 q 20 217 29 257 q 38 296 53 332 q 69 367 92 396 q 114 426 141 447 q 168 468 199 480 q 230 492 263 492 q 297 492 324 481 q 351 469 372 449 l 403 702 l 524 702 l 438 0 z m 208 90 q 227 90 247 103 q 268 116 286 139 q 305 163 321 194 q 337 225 348 260 l 362 370 q 345 385 324 392 q 304 398 283 398 q 251 398 226 380 q 200 361 182 332 q 163 302 153 264 q 143 227 143 188 q 143 138 160 114 q 177 90 208 90 z"},"1":{"x_min":0,"x_max":507,"ha":507,"o":"m 112 85 l 239 85 l 286 457 q 287 468 288 480 q 290 491 292 503 l 195 429 q 187 422 179 420 q 171 418 164 420 q 157 421 152 425 q 146 428 144 432 l 114 481 l 329 649 l 422 649 l 353 85 l 464 85 l 454 0 l 102 0 z"},"5":{"x_min":0,"x_max":507,"ha":507,"o":"m 493 600 q 490 576 473 561 q 456 546 420 546 l 250 546 l 212 414 q 252 422 288 422 q 333 422 367 408 q 401 395 424 372 q 447 348 458 317 q 470 285 470 249 q 470 192 449 145 q 428 98 392 64 q 356 30 307 12 q 259 -7 203 -7 q 173 -7 147 0 q 121 6 98 16 q 76 27 58 41 q 39 55 25 70 l 65 118 q 78 133 96 133 q 107 133 118 126 q 128 119 142 110 q 156 102 175 94 q 193 87 221 87 q 255 87 280 100 q 305 112 322 132 q 338 152 347 179 q 355 206 355 235 q 355 279 329 304 q 303 329 253 329 q 207 329 160 312 l 92 332 l 184 648 l 498 648 z"}}}
